<svg width="40" height="40" viewBox="0 0 40 40" fill="none" xmlns="http://www.w3.org/2000/svg">
<path d="M0 6C0 2.68629 2.68629 0 6 0H34C37.3137 0 40 2.68629 40 6V34C40 37.3137 37.3137 40 34 40H6C2.68629 40 0 37.3137 0 34V6Z" fill="#FFF1E9" />
<path
        d="M23.2188 11.1482C23.326 11.1958 23.4227 11.264 23.5035 11.349C23.5843 11.434 23.6476 11.5341 23.6897 11.6435C23.7318 11.753 23.752 11.8697 23.749 11.9869C23.746 12.1041 23.72 12.2196 23.6724 12.3268L16.5295 28.3982C16.4334 28.6146 16.2552 28.784 16.0342 28.8691C15.8131 28.9541 15.5674 28.9479 15.3509 28.8518C15.1345 28.7556 14.9651 28.5775 14.8801 28.3564C14.795 28.1354 14.8012 27.8896 14.8974 27.6732L22.0402 11.6018C22.0878 11.4946 22.1561 11.3979 22.241 11.3171C22.326 11.2363 22.4261 11.173 22.5356 11.1309C22.645 11.0887 22.7617 11.0686 22.8789 11.0716C22.9961 11.0746 23.1116 11.1006 23.2188 11.1482ZM13.4509 15.3143C13.5384 15.3924 13.6096 15.4869 13.6606 15.5925C13.7115 15.6982 13.7411 15.8128 13.7478 15.9298C13.7544 16.0469 13.7379 16.1641 13.6992 16.2748C13.6606 16.3855 13.6005 16.4875 13.5224 16.575L10.4813 20L13.5259 23.425C13.6038 23.5127 13.6636 23.6149 13.702 23.7257C13.7403 23.8365 13.7565 23.9538 13.7495 24.0709C13.7426 24.188 13.7126 24.3025 13.6614 24.408C13.6102 24.5135 13.5386 24.6079 13.4509 24.6857C13.3632 24.7636 13.2611 24.8234 13.1502 24.8617C13.0394 24.9001 12.9221 24.9163 12.805 24.9093C12.688 24.9023 12.5734 24.8724 12.4679 24.8212C12.3624 24.7699 12.2681 24.6984 12.1902 24.6107L8.61879 20.5929C8.47369 20.4295 8.39355 20.2185 8.39355 20C8.39355 19.7815 8.47369 19.5705 8.61879 19.4071L12.1902 15.3893C12.2681 15.3016 12.3624 15.23 12.4679 15.1788C12.5734 15.1275 12.688 15.0976 12.805 15.0906C12.9221 15.0836 13.0394 15.0998 13.1502 15.1382C13.2611 15.1766 13.3632 15.2364 13.4509 15.3143ZM26.5492 15.3143C26.6368 15.2364 26.739 15.1766 26.8498 15.1382C26.9607 15.0998 27.078 15.0836 27.195 15.0906C27.3121 15.0976 27.4267 15.1275 27.5322 15.1788C27.6377 15.23 27.732 15.3016 27.8099 15.3893L31.3813 19.4071C31.5264 19.5705 31.6065 19.7815 31.6065 20C31.6065 20.2185 31.5264 20.4295 31.3813 20.5929L27.8099 24.6107C27.732 24.6984 27.6376 24.7699 27.5322 24.8212C27.4267 24.8724 27.3121 24.9023 27.195 24.9093C27.078 24.9163 26.9607 24.9001 26.8499 24.8617C26.739 24.8234 26.6369 24.7636 26.5492 24.6857C26.4614 24.6079 26.3899 24.5135 26.3387 24.408C26.2875 24.3025 26.2575 24.188 26.2505 24.0709C26.2436 23.9538 26.2597 23.8365 26.2981 23.7257C26.3365 23.6149 26.3963 23.5127 26.4742 23.425L29.5188 20L26.4742 16.575C26.3963 16.4873 26.3364 16.3851 26.2981 16.2743C26.2597 16.1635 26.2435 16.0462 26.2505 15.9291C26.2574 15.812 26.2874 15.6975 26.3386 15.592C26.3899 15.4865 26.4614 15.3921 26.5492 15.3143Z"
        fill="#FF7E35"
/>
</svg>