<svg width="40" height="40" viewBox="0 0 40 40" fill="none" xmlns="http://www.w3.org/2000/svg">
    <path d="M0 6C0 2.68629 2.68629 0 6 0H34C37.3137 0 40 2.68629 40 6V34C40 37.3137 37.3137 40 34 40H6C2.68629 40 0 37.3137 0 34V6Z" fill="#F6E7FF" />
    <path
            d="M17.7678 11.5179C17.7678 10.9259 18.003 10.3581 18.4216 9.93949C18.8402 9.52089 19.408 9.28571 20 9.28571C20.592 9.28571 21.1597 9.52089 21.5783 9.93949C21.9969 10.3581 22.2321 10.9259 22.2321 11.5179C22.2321 12.1099 21.9969 12.6776 21.5783 13.0962C21.1597 13.5148 20.592 13.75 20 13.75C19.408 13.75 18.8402 13.5148 18.4216 13.0962C18.003 12.6776 17.7678 12.1099 17.7678 11.5179ZM20 7.5C19.394 7.50001 18.7959 7.63708 18.2504 7.90097C17.7049 8.16485 17.2261 8.5487 16.85 9.02379C16.4738 9.49888 16.21 10.0529 16.0783 10.6444C15.9465 11.2359 15.9503 11.8495 16.0893 12.4393L13.2107 11.2786C12.5123 10.9973 11.731 11.0031 11.0368 11.2946C10.3426 11.5862 9.79161 12.1401 9.50354 12.8357C9.36095 13.1802 9.28806 13.5496 9.28907 13.9224C9.29009 14.2953 9.36499 14.6642 9.50945 15.0079C9.65392 15.3516 9.86507 15.6633 10.1307 15.9249C10.3964 16.1866 10.7112 16.3929 11.0571 16.5321L14.6428 17.9804V22.2375L11.4053 28.3268C11.23 28.6563 11.1214 29.017 11.0855 29.3885C11.0496 29.76 11.0873 30.1349 11.1963 30.4918C11.3053 30.8488 11.4836 31.1807 11.7209 31.4687C11.9582 31.7568 12.25 31.9952 12.5794 32.1705C13.2448 32.5246 14.0236 32.5997 14.7445 32.3796C15.4653 32.1594 16.0692 31.6618 16.4232 30.9964L20 24.2679L23.5785 30.9964C23.9323 31.6618 24.5359 32.1595 25.2566 32.3798C25.9773 32.6002 26.756 32.5252 27.4214 32.1714C28.0868 31.8176 28.5844 31.214 28.8048 30.4934C29.0251 29.7727 28.9502 28.994 28.5964 28.3286L25.3571 22.2357V17.9804L28.9428 16.5321C29.2887 16.3929 29.6036 16.1866 29.8692 15.9249C30.1349 15.6633 30.346 15.3516 30.4905 15.0079C30.6349 14.6642 30.7099 14.2953 30.7109 13.9224C30.7119 13.5496 30.639 13.1802 30.4964 12.8357C30.2087 12.1397 29.6578 11.5855 28.9635 11.2936C28.2693 11.0016 27.4879 10.9956 26.7893 11.2768L23.9125 12.4393C24.0515 11.8493 24.0552 11.2355 23.9234 10.6439C23.7915 10.0523 23.5275 9.49821 23.1512 9.02309C22.7748 8.54796 22.2959 8.16415 21.7501 7.90038C21.2044 7.63662 20.6061 7.49974 20 7.5ZM11.1553 13.5161C11.2634 13.2563 11.4693 13.0494 11.7285 12.9402C11.9878 12.8309 12.2797 12.828 12.541 12.9321L18.6625 15.4054C19.5205 15.7519 20.4795 15.7519 21.3375 15.4054L27.4589 12.9321C27.7203 12.828 28.0121 12.8309 28.2714 12.9402C28.5307 13.0494 28.7366 13.2563 28.8446 13.5161C28.8975 13.6428 28.9247 13.7788 28.9245 13.9161C28.9244 14.0535 28.8969 14.1894 28.8438 14.3161C28.7906 14.4427 28.7127 14.5575 28.6148 14.6537C28.5168 14.75 28.4007 14.8258 28.2732 14.8768L24.6875 16.3232C24.3572 16.4568 24.0744 16.6862 23.8755 16.9818C23.6766 17.2775 23.5707 17.6258 23.5714 17.9821V22.2375C23.5712 22.5302 23.643 22.8184 23.7803 23.0768L27.0196 29.1679C27.1367 29.4136 27.1546 29.695 27.0694 29.9536C26.9842 30.2121 26.8025 30.4278 26.5622 30.5558C26.322 30.6837 26.0416 30.7141 25.7795 30.6405C25.5175 30.5669 25.2939 30.395 25.1553 30.1607L21.5768 23.4286C21.4246 23.1424 21.1975 22.9031 20.9198 22.7361C20.642 22.5692 20.324 22.481 20 22.481C19.6759 22.481 19.3579 22.5692 19.0802 22.7361C18.8024 22.9031 18.5753 23.1424 18.4232 23.4286L14.8464 30.1554C14.7813 30.2778 14.6928 30.3862 14.5858 30.4744C14.4788 30.5625 14.3556 30.6288 14.223 30.6693C14.0904 30.7099 13.9512 30.7239 13.8132 30.7106C13.6752 30.6974 13.5411 30.657 13.4187 30.592C13.2963 30.5269 13.1879 30.4383 13.0997 30.3314C13.0115 30.2244 12.9453 30.1011 12.9047 29.9686C12.8642 29.836 12.8502 29.6967 12.8634 29.5587C12.8767 29.4207 12.917 29.2867 12.9821 29.1643L16.2196 23.075C16.3567 22.8171 16.4284 22.5296 16.4285 22.2375V17.9804C16.4285 17.6247 16.3223 17.2771 16.1235 16.9821C15.9246 16.6872 15.6422 16.4584 15.3125 16.325L11.7268 14.875C11.5992 14.824 11.4831 14.7482 11.3851 14.6519C11.2872 14.5557 11.2094 14.4409 11.1562 14.3143C11.103 14.1876 11.0756 14.0517 11.0754 13.9144C11.0753 13.777 11.1024 13.6428 11.1553 13.5161Z"
            fill="#A729F5"
    />
</svg>