<svg width="40" height="40" viewBox="0 0 40 40" fill="none" xmlns="http://www.w3.org/2000/svg">
    <path d="M0 6C0 2.68629 2.68629 0 6 0H34C37.3137 0 40 2.68629 40 6V34C40 37.3137 37.3137 40 34 40H6C2.68629 40 0 37.3137 0 34V6Z" fill="#E0FDEF" />
    <path
            d="M12.8567 7.50357C12.6199 7.50357 12.3928 7.59764 12.2254 7.76508C12.0579 7.93253 11.9639 8.15963 11.9639 8.39643V20.8929C11.9639 21.8401 12.3401 22.7485 13.0099 23.4182C13.6797 24.088 14.5881 24.4643 15.5353 24.4643H16.4282V28.9286C16.4282 29.3973 16.5205 29.8615 16.6999 30.2946C16.8793 30.7277 17.1422 31.1212 17.4737 31.4527C17.8051 31.7842 18.1987 32.0471 18.6318 32.2265C19.0648 32.4059 19.529 32.4982 19.9978 32.4982C20.4666 32.4982 20.9307 32.4059 21.3638 32.2265C21.7969 32.0471 22.1904 31.7842 22.5219 31.4527C22.8534 31.1212 23.1163 30.7277 23.2957 30.2946C23.4751 29.8615 23.5674 29.3973 23.5674 28.9286V24.4643H24.4639C25.4111 24.4643 26.3195 24.088 26.9892 23.4182C27.659 22.7485 28.0353 21.8401 28.0353 20.8929V8.39643C28.0353 8.15963 27.9412 7.93253 27.7738 7.76508C27.6063 7.59764 27.3792 7.50357 27.1424 7.50357H12.8567ZM26.2496 18.2143H13.7496V9.28929H19.1067V11.9714C19.1067 12.2082 19.2008 12.4353 19.3682 12.6028C19.5357 12.7702 19.7628 12.8643 19.9996 12.8643C20.2364 12.8643 20.4635 12.7702 20.6309 12.6028C20.7984 12.4353 20.8924 12.2082 20.8924 11.9714V9.28929H22.6782V13.7464C22.6782 13.9832 22.7722 14.2103 22.9397 14.3778C23.1071 14.5452 23.3342 14.6393 23.571 14.6393C23.8078 14.6393 24.0349 14.5452 24.2024 14.3778C24.3698 14.2103 24.4639 13.9832 24.4639 13.7464V9.28929H26.2496V18.2143ZM13.7496 20.8929V20H26.2496V20.8929C26.2496 21.3665 26.0614 21.8207 25.7266 22.1555C25.3917 22.4904 24.9375 22.6786 24.4639 22.6786H22.6746C22.4378 22.6786 22.2107 22.7726 22.0432 22.9401C21.8758 23.1075 21.7817 23.3346 21.7817 23.5714V28.9286C21.7817 29.4017 21.5938 29.8554 21.2592 30.19C20.9247 30.5246 20.4709 30.7125 19.9978 30.7125C19.5247 30.7125 19.0709 30.5246 18.7364 30.19C18.4018 29.8554 18.2139 29.4017 18.2139 28.9286V23.5714C18.2139 23.3346 18.1198 23.1075 17.9524 22.9401C17.7849 22.7726 17.5578 22.6786 17.321 22.6786H15.5353C15.0617 22.6786 14.6075 22.4904 14.2726 22.1555C13.9377 21.8207 13.7496 21.3665 13.7496 20.8929Z"
            fill="#2FD887"
    />
</svg>