<svg width="40" height="40" viewBox="0 0 40 40" fill="none" xmlns="http://www.w3.org/2000/svg">
    <path d="M0 6C0 2.68629 2.68629 0 6 0H34C37.3137 0 40 2.68629 40 6V34C40 37.3137 37.3137 40 34 40H6C2.68629 40 0 37.3137 0 34V6Z" fill="#EBF0FF" />
    <path
            d="M20.8923 19.1071C20.8923 18.3967 21.1745 17.7154 21.6768 17.2131C22.1792 16.7108 22.8605 16.4286 23.5709 16.4286H26.2494C26.4862 16.4286 26.7133 16.5226 26.8808 16.6901C27.0482 16.8575 27.1423 17.0846 27.1423 17.3214C27.1423 17.5582 27.0482 17.7853 26.8808 17.9528C26.7133 18.1202 26.4862 18.2143 26.2494 18.2143H23.5709C23.3341 18.2143 23.107 18.3084 22.9395 18.4758C22.7721 18.6432 22.678 18.8703 22.678 19.1071V20C22.678 20.2368 22.7721 20.4639 22.9395 20.6313C23.107 20.7988 23.3341 20.8929 23.5709 20.8929H24.4637C25.1741 20.8929 25.8554 21.1751 26.3578 21.6774C26.8601 22.1797 27.1423 22.861 27.1423 23.5714V24.4643C27.1423 25.1747 26.8601 25.856 26.3578 26.3583C25.8554 26.8607 25.1741 27.1429 24.4637 27.1429H21.7852C21.5484 27.1429 21.3213 27.0488 21.1538 26.8813C20.9864 26.7139 20.8923 26.4868 20.8923 26.25C20.8923 26.0132 20.9864 25.7861 21.1538 25.6187C21.3213 25.4512 21.5484 25.3571 21.7852 25.3571H24.4637C24.7005 25.3571 24.9276 25.2631 25.0951 25.0956C25.2625 24.9282 25.3566 24.7011 25.3566 24.4643V23.5714C25.3566 23.3346 25.2625 23.1075 25.0951 22.9401C24.9276 22.7726 24.7005 22.6786 24.4637 22.6786H23.5709C22.8605 22.6786 22.1792 22.3964 21.6768 21.894C21.1745 21.3917 20.8923 20.7104 20.8923 20V19.1071ZM19.9994 17.3214C19.9994 17.0846 19.9054 16.8575 19.7379 16.6901C19.5705 16.5226 19.3434 16.4286 19.1066 16.4286C18.8698 16.4286 18.6427 16.5226 18.4752 16.6901C18.3078 16.8575 18.2137 17.0846 18.2137 17.3214V24.4643C18.2137 24.7011 18.1197 24.9282 17.9522 25.0956C17.7848 25.2631 17.5577 25.3571 17.3209 25.3571H15.5352C15.2984 25.3571 15.0713 25.4512 14.9038 25.6187C14.7364 25.7861 14.6423 26.0132 14.6423 26.25C14.6423 26.4868 14.7364 26.7139 14.9038 26.8813C15.0713 27.0488 15.2984 27.1429 15.5352 27.1429H17.3209C18.0313 27.1429 18.7126 26.8607 19.2149 26.3583C19.7172 25.856 19.9994 25.1747 19.9994 24.4643V17.3214ZM9.28516 13.75C9.28516 12.566 9.7555 11.4305 10.5927 10.5933C11.4299 9.75606 12.5654 9.28572 13.7494 9.28572H26.2494C27.4334 9.28572 28.569 9.75606 29.4062 10.5933C30.2434 11.4305 30.7137 12.566 30.7137 13.75V26.25C30.7137 27.434 30.2434 28.5695 29.4062 29.4067C28.569 30.2439 27.4334 30.7143 26.2494 30.7143H13.7494C12.5654 30.7143 11.4299 30.2439 10.5927 29.4067C9.7555 28.5695 9.28516 27.434 9.28516 26.25V13.75ZM13.7494 11.0714C13.039 11.0714 12.3577 11.3536 11.8554 11.856C11.3531 12.3583 11.0709 13.0396 11.0709 13.75V26.25C11.0709 26.9604 11.3531 27.6417 11.8554 28.144C12.3577 28.6464 13.039 28.9286 13.7494 28.9286H26.2494C26.9598 28.9286 27.6411 28.6464 28.1435 28.144C28.6458 27.6417 28.928 26.9604 28.928 26.25V13.75C28.928 13.0396 28.6458 12.3583 28.1435 11.856C27.6411 11.3536 26.9598 11.0714 26.2494 11.0714H13.7494Z"
            fill="#306AFF"
    />
</svg>